# xmcd CD database file
#
# Track frame offsets:
#	182
#	15245
#	30375
#	45460
#	59085
#	73475
#	88087
#	102285
#	117107
#	131245
#	144887
#	158495
#	173365
#	187715
#	201902
#	214532
#	227940
#	241517
#	254692
#	267567
#	281115
#
# Disc length: 3908 seconds
#
# Revision: 0
# Processed by: cddbd v1.4PL0 Copyright (c) Steve Scherf et al.
# Submitted via: CDex 1.50beta9
#
DISCID=250f4215
DTITLE=Jack Teagarden - 1941-1943
DYEAR=1996
DGENRE=Jazz
TTITLE0=Dark Eyes
TTITLE1=Prelude in C Sharp Minor
TTITLE2=Chicks Is Wonderful
TTITLE3=Blues to the Lonely
TTITLE4=Waiter and the Porter and the Upstairs Maid - Bing Crosby
TTITLE5=Birth of the Blues - Bing Crosby
TTITLE6=Blue River
TTITLE7=St. James Infirmary
TTITLE8=Black and Blue
TTITLE9=Hundred Years from Today
TTITLE10=Rhythm Hymn
TTITLE11=Prelude to the Blues
TTITLE12=Blues Have Got Me
TTITLE13=Nobody Knows the Trouble I've Seen
TTITLE14=Clambake in B Flat - Jack Teagarden
TTITLE15=Cassanova's Lament - Jack Teagarden
TTITLE16=In My Solitude - Jack Teagarden
TTITLE17=I'm Sorry I Made You Cry - Jack Teagarden
TTITLE18=Mighty Lak' a Rose - 
TTITLE19=Stars Fell on Alabama - Jack Teagarden
TTITLE20='Deed I Do - Jack Teagarden
EXTD=YEAR: 1996
EXTT0=
EXTT1=
EXTT2=
EXTT3=
EXTT4=
EXTT5=
EXTT6=
EXTT7=
EXTT8=
EXTT9=
EXTT10=
EXTT11=
EXTT12=
EXTT13=
EXTT14=
EXTT15=
EXTT16=
EXTT17=
EXTT18=
EXTT19=
EXTT20=
PLAYORDER=
